<svg width="621.973" height="138.185" viewBox="0 0 621.973 138.185" xmlns="http://www.w3.org/2000/svg"><g id="svgGroup" stroke-linecap="round" fill-rule="evenodd" font-size="9pt" stroke="#000000" stroke-width="0.25mm" fill="#000000" style="stroke:#000000;stroke-width:0.25mm;fill:#000000"><path d="M 104.102 46.68 L 104.102 47.461 A 66.724 66.724 0 0 1 103.384 55.394 A 89.01 89.01 0 0 1 101.904 62.989 L 99.414 73.487 A 124.827 124.827 0 0 0 100.391 71.391 Q 100.881 70.317 101.405 69.121 A 210.1 210.1 0 0 0 101.758 68.311 A 135.448 135.448 0 0 1 104.398 62.563 Q 108.289 54.621 111.768 50.757 A 19.022 19.022 0 0 1 114.896 47.931 Q 117.234 46.278 119.75 45.8 A 11.101 11.101 0 0 1 121.826 45.606 A 5.865 5.865 0 0 1 126.28 47.523 A 7.596 7.596 0 0 1 126.709 48.023 A 8.848 8.848 0 0 1 128.613 53.663 Q 128.613 54.055 128.582 54.369 A 4.628 4.628 0 0 1 128.564 54.517 A 5.708 5.708 0 0 0 128.516 55.25 A 6.243 6.243 0 0 0 128.516 55.274 Q 133.936 48.682 139.795 46.29 A 9.354 9.354 0 0 1 142.49 45.56 A 8.584 8.584 0 0 1 143.433 45.508 Q 145.264 45.508 146.924 47.242 A 5.817 5.817 0 0 1 148.404 50.106 A 8.535 8.535 0 0 1 148.584 51.905 A 31.005 31.005 0 0 1 148.36 55.539 A 39.309 39.309 0 0 1 147.949 58.204 A 81.566 81.566 0 0 1 146.362 64.991 A 123.848 123.848 0 0 1 144.214 71.9 A 170.898 170.898 0 0 0 143.571 73.815 Q 142.542 76.941 141.113 81.592 A 108.185 108.185 0 0 0 140.259 84.511 Q 139.124 88.617 138.867 91.089 A 113.265 113.265 0 0 1 138.743 92.232 Q 138.493 94.426 138.318 94.982 A 1.397 1.397 0 0 1 138.306 95.02 A 3.433 3.433 0 0 1 138.103 95.482 Q 137.86 95.947 137.43 96.505 A 12.326 12.326 0 0 1 137.427 96.509 A 2.13 2.13 0 0 1 135.863 97.352 A 2.983 2.983 0 0 1 135.596 97.364 Q 133.635 97.364 133.35 93.801 A 16.573 16.573 0 0 1 133.301 92.481 A 19.434 19.434 0 0 1 133.637 88.97 A 26.16 26.16 0 0 1 134.424 85.84 A 423.181 423.181 0 0 0 134.959 84.128 Q 135.721 81.675 136.251 79.849 A 142.921 142.921 0 0 0 136.255 79.834 Q 136.963 77.393 138.184 73.975 A 192.182 192.182 0 0 0 138.831 72.132 Q 139.856 69.165 141.211 64.991 A 53.454 53.454 0 0 0 143.334 55.478 A 61.297 61.297 0 0 0 143.604 53.077 A 12.893 12.893 0 0 0 143.585 52.367 Q 143.507 50.957 143.091 50.66 Q 142.677 50.364 141.737 50.307 A 7.919 7.919 0 0 0 141.26 50.293 Q 139.946 50.293 137.3 51.99 A 27.405 27.405 0 0 0 137.28 52.002 Q 134.619 53.711 131.885 56.836 Q 125.781 64.014 122.705 74.463 Q 121.826 77.588 121.045 79.834 A 239.92 239.92 0 0 0 120.622 81.061 Q 120.153 82.433 119.548 84.247 A 822.36 822.36 0 0 0 118.97 85.987 A 138.384 138.384 0 0 0 118.075 88.783 Q 117.648 90.169 117.303 91.41 A 73.773 73.773 0 0 0 116.919 92.847 Q 116.262 95.412 115.752 96.339 A 2.408 2.408 0 0 1 115.601 96.582 A 1.775 1.775 0 0 1 114.623 97.254 Q 114.317 97.343 113.945 97.36 A 3.891 3.891 0 0 1 113.77 97.364 A 3.058 3.058 0 0 1 112.755 97.209 Q 111.811 96.878 111.464 95.84 A 4.041 4.041 0 0 1 111.279 94.874 Q 112.451 86.67 114.795 80.372 A 980.24 980.24 0 0 1 115.912 77.384 Q 117.505 73.145 118.604 70.362 A 84.495 84.495 0 0 0 120.044 66.413 A 113.558 113.558 0 0 0 121.436 61.988 Q 122.451 58.523 122.712 55.773 A 19.258 19.258 0 0 0 122.803 53.956 Q 122.803 50.586 120.703 50.586 A 5.518 5.518 0 0 0 117.544 51.808 Q 112.561 55.397 105.566 69.532 A 422.541 422.541 0 0 0 103.555 73.624 Q 100.922 79.064 99.87 81.751 A 23.403 23.403 0 0 0 99.463 82.862 Q 98.64 85.329 98.104 86.909 A 301.177 301.177 0 0 1 97.803 87.793 A 62.928 62.928 0 0 1 96.631 91.164 Q 94.826 95.877 93.133 97.293 A 2.253 2.253 0 0 1 91.699 97.901 A 3.857 3.857 0 0 1 90.869 97.816 A 2.917 2.917 0 0 1 90.015 97.486 A 2.068 2.068 0 0 1 89.688 97.253 Q 89.307 96.915 89.307 96.485 A 30.42 30.42 0 0 0 89.869 94.579 Q 90.149 93.51 90.403 92.281 A 60.522 60.522 0 0 0 90.698 90.748 A 46.778 46.778 0 0 1 91.604 86.706 A 38.763 38.763 0 0 1 92.285 84.473 Q 96.436 67.92 99.121 49.366 A 25.166 25.166 0 0 0 99.276 48.305 A 20.78 20.78 0 0 0 99.341 47.706 A 1.601 1.601 0 0 1 99.465 47.251 Q 99.737 46.592 100.592 45.582 A 17.402 17.402 0 0 1 100.781 45.362 A 11.027 11.027 0 0 1 101.26 45.191 Q 101.723 45.039 102.041 44.992 A 1.761 1.761 0 0 1 102.295 44.971 Q 103.528 44.971 104.007 46.362 A 4.177 4.177 0 0 1 104.102 46.68 Z M 601.27 101.905 L 606.152 98.194 A 40.956 40.956 0 0 1 606.446 97.103 Q 607.285 94.123 609.863 85.791 Q 612.579 77.017 613.364 74.321 A 53.302 53.302 0 0 0 613.574 73.584 A 77.7 77.7 0 0 1 610.234 81.854 Q 607.134 88.35 603.271 92.676 Q 599.457 96.945 595.98 97.244 A 6.087 6.087 0 0 1 595.459 97.266 A 7.4 7.4 0 0 1 589.855 94.862 A 9.525 9.525 0 0 1 589.355 94.288 A 9.916 9.916 0 0 1 587.638 90.959 Q 587.216 89.59 587.058 87.952 A 21.466 21.466 0 0 1 586.963 85.889 Q 586.963 79.466 589.762 67.389 A 264.024 264.024 0 0 1 591.748 59.424 A 719.471 719.471 0 0 0 592.309 57.306 Q 594.037 50.734 594.135 49.756 A 1.012 1.012 0 0 0 594.141 49.659 A 7.818 7.818 0 0 1 594.101 49.318 Q 594.024 48.497 594.179 48.023 A 1.137 1.137 0 0 1 594.336 47.706 A 5.827 5.827 0 0 1 595.269 46.701 A 3.639 3.639 0 0 1 597.656 45.801 Q 599.175 45.801 599.482 47.043 A 2.964 2.964 0 0 1 599.561 47.754 A 8.043 8.043 0 0 1 599.435 48.864 Q 598.981 51.689 596.876 60.399 A 901.46 901.46 0 0 1 595.85 64.6 Q 592.139 79.639 592.139 84.742 Q 592.139 89.39 593.172 90.898 A 2.176 2.176 0 0 0 593.384 91.163 A 4.024 4.024 0 0 0 596.295 92.479 A 4.864 4.864 0 0 0 596.436 92.481 A 5.64 5.64 0 0 0 599.259 91.655 Q 601.248 90.511 603.333 87.784 A 31.333 31.333 0 0 0 604.541 86.084 A 41.068 41.068 0 0 0 607.544 80.639 Q 609.928 75.498 611.841 68.457 Q 614.353 59.211 615.542 54.582 A 241.272 241.272 0 0 0 615.991 52.808 A 63.059 63.059 0 0 1 616.459 51.029 Q 617.271 48.127 617.92 47.193 A 2.681 2.681 0 0 1 619.877 46.026 A 3.89 3.89 0 0 1 620.361 45.997 A 3.264 3.264 0 0 1 620.939 46.043 Q 621.938 46.224 621.971 47.106 A 1.637 1.637 0 0 1 621.973 47.168 A 4.571 4.571 0 0 1 621.904 47.744 Q 621.495 50.315 618.637 63.027 A 2501.189 2501.189 0 0 1 617.603 67.603 Q 613.232 86.866 611.67 93.995 A 82.578 82.578 0 0 0 613.513 92.334 A 61.882 61.882 0 0 0 615.137 90.772 A 75.481 75.481 0 0 1 616.224 89.705 Q 616.765 89.186 617.254 88.74 A 38.694 38.694 0 0 1 617.822 88.233 A 6.625 6.625 0 0 1 618.424 87.76 Q 619.079 87.31 619.628 87.227 A 1.628 1.628 0 0 1 619.873 87.207 A 3.02 3.02 0 0 1 620.573 87.281 Q 621.515 87.507 621.689 88.418 A 2.396 2.396 0 0 1 621.729 88.868 A 2.849 2.849 0 0 1 621.408 90.161 A 4.062 4.062 0 0 1 620.947 90.87 A 184.037 184.037 0 0 1 615.613 95.459 A 142.169 142.169 0 0 1 610.547 99.463 A 360.236 360.236 0 0 1 608.728 108.813 Q 605.515 124.161 602.539 129.883 A 16.831 16.831 0 0 1 600.466 132.993 A 19.437 19.437 0 0 1 599.854 133.692 Q 595.898 138.184 590.82 138.184 A 11.007 11.007 0 0 1 587.334 137.659 A 8.839 8.839 0 0 1 582.959 134.449 A 16.703 16.703 0 0 1 581.318 131.789 Q 580.515 130.138 580.276 128.527 A 9.236 9.236 0 0 1 580.176 127.173 A 24.045 24.045 0 0 1 580.332 124.356 Q 580.547 122.542 581.055 121.045 A 18.504 18.504 0 0 1 583.447 116.309 A 23.398 23.398 0 0 1 587.012 112.33 A 57.105 57.105 0 0 1 591.388 108.803 A 60.994 60.994 0 0 1 591.406 108.79 Q 593.75 107.081 596.265 105.42 Q 598.779 103.76 601.27 101.905 Z M 227.441 93.262 L 227.539 94.971 A 1.91 1.91 0 0 1 226.429 96.795 Q 225.603 97.218 224.162 97.261 A 11.194 11.194 0 0 1 223.828 97.266 A 2.543 2.543 0 0 1 223.162 97.187 Q 222.119 96.903 222.119 95.606 A 9.489 9.489 0 0 1 222.272 94.516 Q 223.184 89.243 229.552 59.856 A 9833.633 9833.633 0 0 1 231.885 49.122 A 3337.935 3337.935 0 0 0 235.003 34.257 Q 238.536 17.201 240.241 7.813 A 281.352 281.352 0 0 0 241.113 2.784 L 241.504 1.465 A 2.791 2.791 0 0 1 241.789 0.807 Q 242.237 0.076 243.083 0.008 A 2.218 2.218 0 0 1 243.262 0 Q 245.752 0 246.436 2.491 Q 246.136 3.911 245.68 6.191 A 894.822 894.822 0 0 0 245.386 7.666 A 785.788 785.788 0 0 1 244.767 10.749 Q 244.448 12.321 244.091 14.058 A 1321.169 1321.169 0 0 1 243.848 15.235 A 8562.094 8562.094 0 0 1 242.932 19.654 A 10710.969 10710.969 0 0 1 241.943 24.415 Q 240.918 29.346 239.844 34.424 Q 238.77 39.502 236.572 49.952 Q 234.388 60.339 232.831 67.397 A 975.467 975.467 0 0 1 232.813 67.481 Q 243.018 46.485 252.1 46.485 A 7.459 7.459 0 0 1 254.426 46.828 A 5.808 5.808 0 0 1 257.617 49.39 A 11.919 11.919 0 0 1 259.424 55.811 Q 259.424 58.849 258.476 63.966 A 107.984 107.984 0 0 1 258.154 65.625 L 256.494 74.024 A 599.117 599.117 0 0 0 255.565 78.814 Q 253.76 88.346 253.76 90.528 L 253.906 94.336 A 3.06 3.06 0 0 1 253.76 95.304 A 2.524 2.524 0 0 1 253.052 96.387 A 2.9 2.9 0 0 1 251.688 97.076 A 4.226 4.226 0 0 1 250.781 97.168 A 3.16 3.16 0 0 1 249.97 97.071 A 2.11 2.11 0 0 1 248.706 96.167 A 4.639 4.639 0 0 1 248.304 95.427 Q 248.107 94.961 248.061 94.512 A 2.669 2.669 0 0 1 248.047 94.239 Q 248.047 93.326 248.189 92.602 A 6.167 6.167 0 0 1 248.193 92.579 L 254.004 60.108 A 15.919 15.919 0 0 0 254.204 58.647 Q 254.274 57.898 254.291 57.062 A 27.296 27.296 0 0 0 254.297 56.495 Q 254.297 53.364 253.219 52.182 A 2.2 2.2 0 0 0 251.514 51.465 A 5.553 5.553 0 0 0 248.548 52.51 Q 244.816 54.931 239.728 62.969 A 119.421 119.421 0 0 0 237.158 67.237 A 239.497 239.497 0 0 0 234.972 71.124 Q 231.757 76.979 230.859 79.615 Q 229.765 82.828 228.714 86.936 A 139.758 139.758 0 0 0 228.564 87.525 A 110.638 110.638 0 0 0 228.183 89.088 Q 227.612 91.506 227.481 92.674 A 5.41 5.41 0 0 0 227.441 93.262 Z M 356.25 98.78 L 353.369 113.477 A 104.754 104.754 0 0 1 351.804 120.313 Q 350.078 126.762 347.919 130.591 A 16.855 16.855 0 0 1 345.898 133.497 Q 342.285 137.5 337.524 137.5 A 11.509 11.509 0 0 1 333.017 136.637 A 10.912 10.912 0 0 1 329.517 134.253 A 10.871 10.871 0 0 1 326.499 128.312 A 15.538 15.538 0 0 1 326.27 125.586 A 16.024 16.024 0 0 1 328.679 117.275 Q 330.676 113.929 334.326 110.743 Q 337.58 107.926 343.08 103.902 A 267.33 267.33 0 0 1 343.14 103.858 Q 347.87 100.399 350.875 97.971 A 92.476 92.476 0 0 0 351.855 97.168 A 134.505 134.505 0 0 1 352.338 94.867 A 176.12 176.12 0 0 1 352.905 92.359 Q 353.516 89.747 354.004 87.598 Q 354.492 85.45 354.98 83.35 A 318.837 318.837 0 0 0 355.45 81.299 A 274.132 274.132 0 0 0 355.884 79.346 Q 356.299 77.442 356.641 76.075 Q 354.15 84.09 351.492 88.493 A 24.564 24.564 0 0 1 351.074 89.161 A 47.479 47.479 0 0 1 348.98 92.119 Q 345.51 96.61 342.831 97.182 A 3.659 3.659 0 0 1 342.065 97.266 A 7.897 7.897 0 0 1 339.015 96.695 A 7.371 7.371 0 0 1 336.108 94.483 Q 333.993 91.89 333.849 87.687 A 18.195 18.195 0 0 1 333.838 87.061 A 51.203 51.203 0 0 1 334.974 76.561 A 66.098 66.098 0 0 1 337.061 68.97 A 55.953 55.953 0 0 1 341.748 58.564 A 46.88 46.88 0 0 1 345.947 52.515 Q 349.95 47.633 354.489 46.2 A 12.756 12.756 0 0 1 358.35 45.606 A 12.775 12.775 0 0 1 362.057 46.128 A 11.153 11.153 0 0 1 364.453 47.168 A 2.788 2.788 0 0 1 365.436 46.892 A 3.424 3.424 0 0 1 365.771 46.875 Q 367.051 46.875 367.314 47.907 A 2.447 2.447 0 0 1 367.383 48.511 Q 367.383 50.147 366.797 51.709 A 28.972 28.972 0 0 0 366.385 52.89 Q 366.185 53.505 365.976 54.217 A 67.112 67.112 0 0 0 365.552 55.738 A 142.034 142.034 0 0 0 365.187 57.134 Q 364.587 59.473 363.672 63.282 A 740.155 740.155 0 0 0 361.279 73.56 Q 360.107 78.76 359.009 83.936 A 899.906 899.906 0 0 1 357.375 91.48 A 802.302 802.302 0 0 1 356.836 93.897 A 33.348 33.348 0 0 0 359.605 91.773 A 38.508 38.508 0 0 0 360.522 90.967 Q 362.262 89.39 363.473 88.407 A 36.25 36.25 0 0 1 363.599 88.306 Q 364.844 87.305 365.723 87.305 A 3.02 3.02 0 0 1 366.423 87.379 Q 367.364 87.604 367.539 88.516 A 2.396 2.396 0 0 1 367.578 88.965 Q 367.578 90.284 366.748 90.967 A 658.023 658.023 0 0 1 363.766 93.232 Q 359.473 96.473 356.25 98.78 Z M 298.584 72.901 L 297.559 78.809 A 112.631 112.631 0 0 0 298.442 76.917 Q 298.827 76.073 299.241 75.136 A 211.266 211.266 0 0 0 300.098 73.169 Q 301.182 70.646 303.067 66.448 A 1125.67 1125.67 0 0 1 304.297 63.721 A 71.601 71.601 0 0 1 307.974 56.629 A 58.809 58.809 0 0 1 310.498 52.735 A 29.447 29.447 0 0 1 312.493 50.146 Q 314.679 47.639 316.711 46.804 A 5.214 5.214 0 0 1 318.701 46.387 A 5.567 5.567 0 0 1 324.017 49.614 Q 325.252 52.019 325.377 56.216 A 32.495 32.495 0 0 1 325.391 57.178 Q 325.391 59.933 324.861 63.612 A 84.478 84.478 0 0 1 324.243 67.286 A 2829.555 2829.555 0 0 1 323.035 73.621 A 3655.297 3655.297 0 0 1 321.704 80.518 Q 320.313 87.696 320.166 92.383 L 319.58 95.069 A 5.756 5.756 0 0 1 319.558 95.596 Q 319.496 96.266 319.263 96.607 A 0.703 0.703 0 0 1 318.989 96.829 Q 318.556 97.046 317.59 97.068 A 9.906 9.906 0 0 1 317.358 97.071 Q 315.922 97.071 315.205 96.591 A 1.757 1.757 0 0 1 315.063 96.485 Q 314.367 95.909 314.592 94.435 A 5.833 5.833 0 0 1 314.6 94.385 L 319.482 65.186 A 109.903 109.903 0 0 0 319.867 62.638 Q 320.241 59.932 320.332 58.058 A 23.218 23.218 0 0 0 320.361 56.934 A 13.235 13.235 0 0 0 320.269 55.291 Q 319.867 52.1 317.725 52.1 A 2.928 2.928 0 0 0 315.962 52.993 Q 312.123 56.344 304.297 72.266 A 369.396 369.396 0 0 0 302.22 76.552 Q 299.376 82.527 298.038 86.019 A 53.44 53.44 0 0 0 298.022 86.06 A 281.256 281.256 0 0 1 297.188 88.219 Q 296.021 91.199 295.361 92.627 A 19.717 19.717 0 0 1 294.814 93.727 Q 294.215 94.837 293.628 95.508 A 3.405 3.405 0 0 1 293.032 96.054 A 2.229 2.229 0 0 1 291.724 96.485 A 3.28 3.28 0 0 1 291.312 96.461 Q 290.881 96.406 290.662 96.225 A 0.602 0.602 0 0 1 290.479 95.972 Q 290.283 95.459 290.283 94.117 Q 290.283 92.943 293.284 76.226 A 3381.292 3381.292 0 0 1 294.214 71.07 A 2022.289 2022.289 0 0 1 295.145 65.965 Q 297.94 50.754 298.636 48.554 A 1.97 1.97 0 0 1 298.755 48.243 A 9.322 9.322 0 0 1 299.052 47.731 Q 299.487 47.04 299.854 46.802 A 1.411 1.411 0 0 1 300.19 46.649 Q 300.557 46.531 301.133 46.498 A 8.39 8.39 0 0 1 301.611 46.485 A 2.637 2.637 0 0 1 302.517 46.634 A 2.262 2.262 0 0 1 303.589 47.461 A 5.243 5.243 0 0 1 303.947 48.022 Q 304.297 48.663 304.297 49.195 A 5.756 5.756 0 0 1 304.102 50.684 A 28.158 28.158 0 0 1 303.812 51.714 Q 303.663 52.209 303.479 52.769 A 63.941 63.941 0 0 1 303.076 53.956 A 68.675 68.675 0 0 0 301.63 58.68 Q 300.282 63.66 299.001 70.583 A 251.727 251.727 0 0 0 298.584 72.901 Z M 427.637 52.295 L 426.27 59.473 A 49.687 49.687 0 0 1 429.56 53.98 Q 435.279 45.801 441.699 45.801 A 11.587 11.587 0 0 1 444.008 46.015 Q 446.595 46.542 447.949 48.365 Q 449.31 50.196 449.698 53.285 A 21.468 21.468 0 0 1 449.854 55.957 A 69.673 69.673 0 0 1 447.906 72.089 A 79.226 79.226 0 0 1 447.217 74.781 A 51.773 51.773 0 0 1 443.803 83.909 A 40.867 40.867 0 0 1 439.331 91.089 Q 434.082 97.803 426.953 97.803 A 10.45 10.45 0 0 1 425.2 97.665 Q 424.206 97.495 423.401 97.119 A 5.501 5.501 0 0 1 422.559 96.631 Q 421.268 95.721 420.361 93.836 A 13.189 13.189 0 0 1 419.873 92.676 A 1113.98 1113.98 0 0 0 415.161 115.21 A 391.579 391.579 0 0 1 412.897 125.885 A 292.005 292.005 0 0 1 410.547 135.499 Q 409.57 137.5 407.764 137.5 Q 406.416 137.5 406.114 135.914 A 4.604 4.604 0 0 1 406.055 135.499 A 468.131 468.131 0 0 0 408.797 124.179 Q 410.018 118.832 410.965 114.013 A 280.999 280.999 0 0 0 411.23 112.647 Q 413.184 102.442 414.233 96.973 Q 415.283 91.504 417.212 81.275 A 1712.047 1712.047 0 0 1 418.324 75.438 Q 420.121 66.091 423.12 50.879 A 10857.763 10857.763 0 0 1 423.438 49.268 L 423.438 47.071 A 2.239 2.239 0 0 1 423.739 45.966 Q 423.96 45.572 424.341 45.191 A 3.164 3.164 0 0 1 425.252 44.543 A 2.803 2.803 0 0 1 426.44 44.288 A 2.427 2.427 0 0 1 427.157 44.387 A 1.811 1.811 0 0 1 428.198 45.215 Q 428.76 46.143 428.76 46.998 A 8.573 8.573 0 0 1 428.723 47.809 A 6.335 6.335 0 0 1 428.613 48.536 A 18.002 18.002 0 0 1 428.271 49.878 Q 428.076 50.538 427.881 51.172 A 7.663 7.663 0 0 0 427.746 51.664 Q 427.691 51.899 427.66 52.109 A 4.018 4.018 0 0 0 427.637 52.295 Z M 193.311 46.387 L 200.537 46.582 A 50.252 50.252 0 0 0 200.687 45.755 Q 200.751 45.386 200.817 44.976 A 96.323 96.323 0 0 0 200.952 44.117 Q 201.172 42.676 201.733 39.917 A 26.161 26.161 0 0 1 202.555 36.822 A 21.365 21.365 0 0 1 203.296 34.913 Q 203.805 33.77 204.472 33.208 A 2.176 2.176 0 0 1 205.908 32.666 A 2.052 2.052 0 0 1 206.575 32.766 Q 207.483 33.077 207.518 34.367 A 3.873 3.873 0 0 1 207.52 34.473 L 207.52 35.108 A 268.018 268.018 0 0 0 206.213 40.979 A 217.604 217.604 0 0 0 205.127 46.485 L 212.305 46.485 A 39.434 39.434 0 0 1 213.629 46.505 Q 216.274 46.595 216.968 47.071 Q 217.822 47.657 217.822 48.536 A 2.048 2.048 0 0 1 217.476 49.731 Q 216.99 50.432 215.825 50.754 A 5.507 5.507 0 0 1 215.723 50.782 A 5.179 5.179 0 0 1 215.1 50.903 Q 213.887 51.075 211.401 51.075 A 83.036 83.036 0 0 1 207.571 50.982 A 105.853 105.853 0 0 1 204.346 50.782 A 133.725 133.725 0 0 1 203.786 53.537 Q 202.668 58.8 200.22 69.043 Q 197.621 79.914 197.134 84.515 A 17.462 17.462 0 0 0 197.021 86.304 A 27.131 27.131 0 0 0 197.064 87.875 Q 197.214 90.453 197.9 91.407 A 1.898 1.898 0 0 0 198.713 91.977 Q 199.035 92.101 199.438 92.152 A 4.859 4.859 0 0 0 200.049 92.188 A 4.34 4.34 0 0 0 201.45 91.969 A 3.772 3.772 0 0 0 202.637 91.309 A 14.587 14.587 0 0 0 204.59 89.38 Q 205.469 88.331 206.323 87.452 A 3.298 3.298 0 0 1 206.974 86.925 A 2.333 2.333 0 0 1 208.203 86.573 A 2.882 2.882 0 0 1 208.995 86.672 Q 210.205 87.018 210.205 88.575 Q 210.205 89.479 208.628 91.429 A 25.445 25.445 0 0 1 208.179 91.968 A 33.982 33.982 0 0 1 206.733 93.559 Q 206.054 94.259 205.414 94.819 A 15.585 15.585 0 0 1 204.443 95.606 A 5.625 5.625 0 0 1 202.797 96.428 Q 202.025 96.676 201.084 96.787 A 13.924 13.924 0 0 1 199.463 96.875 Q 196.871 96.875 195.566 96.17 A 2.934 2.934 0 0 1 194.971 95.752 A 6.838 6.838 0 0 1 193.086 92.891 Q 192.432 91.079 192.432 88.575 Q 192.432 86.036 193.018 82.569 L 193.945 76.905 Q 194.583 74.018 195.129 71.627 A 510.944 510.944 0 0 1 195.605 69.556 A 944.165 944.165 0 0 0 196.209 66.945 Q 196.573 65.36 196.875 64.014 Q 197.412 61.622 198.291 57.789 A 177.496 177.496 0 0 0 199.384 52.691 A 150.43 150.43 0 0 0 199.805 50.489 A 59.569 59.569 0 0 0 196.618 50.569 Q 195.11 50.65 193.789 50.813 A 31.217 31.217 0 0 0 192.627 50.977 A 3.99 3.99 0 0 1 191.871 50.836 Q 190.625 50.462 190.625 49.268 A 2.372 2.372 0 0 1 190.819 48.35 Q 190.957 48.021 191.191 47.686 A 4.758 4.758 0 0 1 191.357 47.461 A 2.809 2.809 0 0 1 193.273 46.392 A 3.605 3.605 0 0 1 193.311 46.387 Z M 526.855 46.387 L 534.082 46.582 A 50.252 50.252 0 0 0 534.232 45.755 Q 534.296 45.386 534.362 44.976 A 96.323 96.323 0 0 0 534.497 44.117 Q 534.717 42.676 535.278 39.917 A 26.161 26.161 0 0 1 536.1 36.822 A 21.365 21.365 0 0 1 536.841 34.913 Q 537.35 33.77 538.017 33.208 A 2.176 2.176 0 0 1 539.453 32.666 A 2.052 2.052 0 0 1 540.12 32.766 Q 541.028 33.077 541.063 34.367 A 3.873 3.873 0 0 1 541.064 34.473 L 541.064 35.108 A 268.018 268.018 0 0 0 539.758 40.979 A 217.604 217.604 0 0 0 538.672 46.485 L 545.85 46.485 A 39.434 39.434 0 0 1 547.174 46.505 Q 549.818 46.595 550.513 47.071 Q 551.367 47.657 551.367 48.536 A 2.048 2.048 0 0 1 551.021 49.731 Q 550.535 50.432 549.37 50.754 A 5.507 5.507 0 0 1 549.268 50.782 A 5.179 5.179 0 0 1 548.645 50.903 Q 547.432 51.075 544.946 51.075 A 83.036 83.036 0 0 1 541.116 50.982 A 105.853 105.853 0 0 1 537.891 50.782 A 133.725 133.725 0 0 1 537.331 53.537 Q 536.213 58.8 533.765 69.043 Q 531.166 79.914 530.679 84.515 A 17.462 17.462 0 0 0 530.566 86.304 A 27.131 27.131 0 0 0 530.608 87.875 Q 530.759 90.453 531.445 91.407 A 1.898 1.898 0 0 0 532.258 91.977 Q 532.58 92.101 532.983 92.152 A 4.859 4.859 0 0 0 533.594 92.188 A 4.34 4.34 0 0 0 534.995 91.969 A 3.772 3.772 0 0 0 536.182 91.309 A 14.587 14.587 0 0 0 538.135 89.38 Q 539.014 88.331 539.868 87.452 A 3.298 3.298 0 0 1 540.519 86.925 A 2.333 2.333 0 0 1 541.748 86.573 A 2.882 2.882 0 0 1 542.54 86.672 Q 543.75 87.018 543.75 88.575 Q 543.75 89.479 542.173 91.429 A 25.445 25.445 0 0 1 541.724 91.968 A 33.982 33.982 0 0 1 540.278 93.559 Q 539.598 94.259 538.959 94.819 A 15.585 15.585 0 0 1 537.988 95.606 A 5.625 5.625 0 0 1 536.342 96.428 Q 535.57 96.676 534.629 96.787 A 13.924 13.924 0 0 1 533.008 96.875 Q 530.416 96.875 529.111 96.17 A 2.934 2.934 0 0 1 528.516 95.752 A 6.838 6.838 0 0 1 526.631 92.891 Q 525.977 91.079 525.977 88.575 Q 525.977 86.036 526.563 82.569 L 527.49 76.905 Q 528.128 74.018 528.674 71.627 A 510.944 510.944 0 0 1 529.15 69.556 A 944.165 944.165 0 0 0 529.754 66.945 Q 530.118 65.36 530.42 64.014 Q 530.957 61.622 531.836 57.789 A 177.496 177.496 0 0 0 532.929 52.691 A 150.43 150.43 0 0 0 533.35 50.489 A 59.569 59.569 0 0 0 530.163 50.569 Q 528.655 50.65 527.334 50.813 A 31.217 31.217 0 0 0 526.172 50.977 A 3.99 3.99 0 0 1 525.416 50.836 Q 524.17 50.462 524.17 49.268 A 2.372 2.372 0 0 1 524.364 48.35 Q 524.501 48.021 524.736 47.686 A 4.758 4.758 0 0 1 524.902 47.461 A 2.809 2.809 0 0 1 526.817 46.392 A 3.605 3.605 0 0 1 526.855 46.387 Z M 558.447 46.387 L 565.674 46.582 A 50.252 50.252 0 0 0 565.824 45.755 Q 565.888 45.386 565.954 44.976 A 96.323 96.323 0 0 0 566.089 44.117 Q 566.309 42.676 566.87 39.917 A 26.161 26.161 0 0 1 567.692 36.822 A 21.365 21.365 0 0 1 568.433 34.913 Q 568.942 33.77 569.609 33.208 A 2.176 2.176 0 0 1 571.045 32.666 A 2.052 2.052 0 0 1 571.712 32.766 Q 572.619 33.077 572.655 34.367 A 3.873 3.873 0 0 1 572.656 34.473 L 572.656 35.108 A 268.018 268.018 0 0 0 571.35 40.979 A 217.604 217.604 0 0 0 570.264 46.485 L 577.441 46.485 A 39.434 39.434 0 0 1 578.766 46.505 Q 581.41 46.595 582.104 47.071 Q 582.959 47.657 582.959 48.536 A 2.048 2.048 0 0 1 582.612 49.731 Q 582.127 50.432 580.962 50.754 A 5.507 5.507 0 0 1 580.859 50.782 A 5.179 5.179 0 0 1 580.236 50.903 Q 579.024 51.075 576.538 51.075 A 83.036 83.036 0 0 1 572.707 50.982 A 105.853 105.853 0 0 1 569.482 50.782 A 133.725 133.725 0 0 1 568.923 53.537 Q 567.805 58.8 565.356 69.043 Q 562.758 79.914 562.271 84.515 A 17.462 17.462 0 0 0 562.158 86.304 A 27.131 27.131 0 0 0 562.2 87.875 Q 562.35 90.453 563.037 91.407 A 1.898 1.898 0 0 0 563.85 91.977 Q 564.172 92.101 564.575 92.152 A 4.859 4.859 0 0 0 565.186 92.188 A 4.34 4.34 0 0 0 566.587 91.969 A 3.772 3.772 0 0 0 567.773 91.309 A 14.587 14.587 0 0 0 569.727 89.38 Q 570.605 88.331 571.46 87.452 A 3.298 3.298 0 0 1 572.111 86.925 A 2.333 2.333 0 0 1 573.34 86.573 A 2.882 2.882 0 0 1 574.132 86.672 Q 575.342 87.018 575.342 88.575 Q 575.342 89.479 573.764 91.429 A 25.445 25.445 0 0 1 573.315 91.968 A 33.982 33.982 0 0 1 571.87 93.559 Q 571.19 94.259 570.551 94.819 A 15.585 15.585 0 0 1 569.58 95.606 A 5.625 5.625 0 0 1 567.934 96.428 Q 567.162 96.676 566.22 96.787 A 13.924 13.924 0 0 1 564.6 96.875 Q 562.007 96.875 560.703 96.17 A 2.934 2.934 0 0 1 560.107 95.752 A 6.838 6.838 0 0 1 558.223 92.891 Q 557.568 91.079 557.568 88.575 Q 557.568 86.036 558.154 82.569 L 559.082 76.905 Q 559.72 74.018 560.265 71.627 A 510.944 510.944 0 0 1 560.742 69.556 A 944.165 944.165 0 0 0 561.346 66.945 Q 561.71 65.36 562.012 64.014 Q 562.549 61.622 563.428 57.789 A 177.496 177.496 0 0 0 564.521 52.691 A 150.43 150.43 0 0 0 564.941 50.489 A 59.569 59.569 0 0 0 561.755 50.569 Q 560.247 50.65 558.926 50.813 A 31.217 31.217 0 0 0 557.764 50.977 A 3.99 3.99 0 0 1 557.008 50.836 Q 555.762 50.462 555.762 49.268 A 2.372 2.372 0 0 1 555.956 48.35 Q 556.093 48.021 556.327 47.686 A 4.758 4.758 0 0 1 556.494 47.461 A 2.809 2.809 0 0 1 558.409 46.392 A 3.605 3.605 0 0 1 558.447 46.387 Z M 456.152 96.29 L 458.398 84.375 A 1358.966 1358.966 0 0 0 459.207 80.141 Q 460.198 74.904 460.684 72.051 A 146.156 146.156 0 0 0 460.791 71.412 A 856.112 856.112 0 0 1 461.469 67.383 A 1132.722 1132.722 0 0 1 462.231 62.964 Q 462.848 59.432 464.453 53.537 A 269.719 269.719 0 0 1 465.527 49.707 A 1.588 1.588 0 0 1 465.466 49.524 Q 465.441 49.43 465.433 49.344 A 0.841 0.841 0 0 1 465.43 49.268 L 465.43 48.78 A 4.753 4.753 0 0 1 465.606 47.444 A 3.347 3.347 0 0 1 467.236 45.411 A 2.196 2.196 0 0 1 467.874 45.13 A 1.958 1.958 0 0 1 468.359 45.069 Q 470.112 45.069 470.402 47.178 A 6.775 6.775 0 0 1 470.459 48.096 A 7.449 7.449 0 0 1 470.376 49.112 Q 470.141 50.781 469.243 53.765 A 81.635 81.635 0 0 1 469.043 54.419 Q 467.627 58.985 466.846 62.891 A 123.759 123.759 0 0 0 467.207 62.293 Q 467.78 61.341 468.53 60.059 A 49.953 49.953 0 0 1 469.104 59.107 Q 470.074 57.532 471.704 55.079 A 30.907 30.907 0 0 1 475.223 50.73 A 37.247 37.247 0 0 1 477.173 48.853 Q 479.886 46.421 482.698 45.991 A 8.013 8.013 0 0 1 483.911 45.899 A 10.217 10.217 0 0 1 485.949 46.089 Q 487.932 46.493 489.16 47.754 A 2.088 2.088 0 0 1 489.842 49.275 A 2.723 2.723 0 0 1 489.844 49.366 A 2.117 2.117 0 0 1 489.39 50.668 A 3.162 3.162 0 0 1 488.965 51.124 Q 488.192 51.811 487.381 51.893 A 2.192 2.192 0 0 1 487.158 51.905 A 3.454 3.454 0 0 1 485.629 51.541 A 4.221 4.221 0 0 1 485.352 51.392 A 3.791 3.791 0 0 0 483.465 50.88 A 4.463 4.463 0 0 0 483.398 50.879 A 2.08 2.08 0 0 0 482.782 50.989 Q 481.839 51.287 480.314 52.391 A 24.637 24.637 0 0 0 479.98 52.637 Q 471.58 58.751 465.833 75.681 A 116.294 116.294 0 0 0 464.6 79.541 Q 463.108 84.515 462.704 86.621 A 14.584 14.584 0 0 0 462.646 86.939 A 247.443 247.443 0 0 1 462.482 87.905 Q 462.244 89.283 462.061 90.235 A 32.691 32.691 0 0 1 461.456 92.906 Q 460.321 97.032 458.533 97.878 A 2.23 2.23 0 0 1 457.568 98.096 A 1.561 1.561 0 0 1 456.934 97.977 Q 456.152 97.632 456.152 96.29 Z M 28.027 96.778 L 27.393 96.778 A 7.323 7.323 0 0 1 21.19 93.506 Q 20.342 92.335 19.68 90.746 A 18.941 18.941 0 0 1 19.385 89.991 A 1.588 1.588 0 0 1 19.323 89.807 Q 19.298 89.713 19.291 89.627 A 0.841 0.841 0 0 1 19.287 89.551 L 19.287 89.063 A 2.711 2.711 0 0 1 19.4 88.263 A 2.184 2.184 0 0 1 19.922 87.378 A 3.25 3.25 0 0 1 20.454 86.927 A 2.311 2.311 0 0 1 21.289 86.573 L 21.826 86.573 Q 22.788 86.573 23.395 87.33 A 2.533 2.533 0 0 1 23.413 87.354 A 13.408 13.408 0 0 1 24.285 88.618 A 15.561 15.561 0 0 1 24.561 89.087 A 12.751 12.751 0 0 0 25.459 90.471 A 11.305 11.305 0 0 0 25.732 90.821 A 1.865 1.865 0 0 0 26.498 91.368 Q 27.075 91.602 27.93 91.602 Q 31.25 91.602 33.228 89.527 A 7.667 7.667 0 0 0 34.54 87.702 A 6.102 6.102 0 0 0 35.205 84.913 A 15.56 15.56 0 0 0 34.859 81.583 A 13.683 13.683 0 0 0 34.473 80.176 Q 33.279 76.5 30.405 71.049 A 116.741 116.741 0 0 0 30.273 70.801 A 72.392 72.392 0 0 1 28.094 66.443 Q 25.293 60.291 25.293 56.446 A 16.624 16.624 0 0 1 25.686 52.732 A 11.615 11.615 0 0 1 27.881 48.047 Q 30.469 44.776 35.205 44.776 A 11.793 11.793 0 0 1 37.61 45.009 A 8.714 8.714 0 0 1 40.234 45.997 A 13.088 13.088 0 0 1 41.941 47.16 Q 44.189 48.994 44.189 51.148 Q 44.189 54.004 41.797 54.004 A 1.903 1.903 0 0 1 41.009 53.845 A 1.849 1.849 0 0 1 40.356 53.345 A 72.168 72.168 0 0 1 39.777 52.655 A 90.43 90.43 0 0 1 39.16 51.905 A 6.706 6.706 0 0 0 37.951 50.731 A 4.525 4.525 0 0 0 35.205 49.805 A 5.98 5.98 0 0 0 33.141 50.132 Q 30.506 51.098 30.334 54.922 A 12.197 12.197 0 0 0 30.322 55.469 A 17.786 17.786 0 0 0 31.07 60.478 A 22.748 22.748 0 0 0 32.08 63.233 Q 33.652 66.814 34.795 69.107 A 62.636 62.636 0 0 0 35.059 69.629 Q 38.757 76.988 39.567 81.652 A 14.135 14.135 0 0 1 39.795 84.058 A 13.744 13.744 0 0 1 39.038 88.691 A 12.152 12.152 0 0 1 36.768 92.579 A 11.578 11.578 0 0 1 31.805 95.914 A 17.157 17.157 0 0 1 28.027 96.778 Z M 162.402 77.295 L 162.207 84.473 Q 162.207 90.028 164.428 91.909 A 4.268 4.268 0 0 0 167.285 92.872 Q 169.982 92.872 172.94 91.328 A 17.938 17.938 0 0 0 173.022 91.285 Q 176.025 89.698 177.344 88.99 Q 178.662 88.282 179.395 88.282 A 2.322 2.322 0 0 1 180.081 88.374 Q 181.104 88.691 181.104 90.088 A 2.325 2.325 0 0 1 180.652 91.381 Q 179.694 92.805 176.7 94.441 A 32.442 32.442 0 0 1 175.977 94.825 A 34.254 34.254 0 0 1 173.083 96.158 Q 170.12 97.347 167.861 97.451 A 9.287 9.287 0 0 1 167.432 97.461 A 16.769 16.769 0 0 1 165.644 97.373 Q 163.721 97.166 162.531 96.478 A 4.634 4.634 0 0 1 162.305 96.338 A 8.088 8.088 0 0 1 160.022 94.047 A 9.919 9.919 0 0 1 159.521 93.213 A 17.019 17.019 0 0 1 157.831 88.347 Q 157.435 86.291 157.422 83.941 A 28.818 28.818 0 0 1 157.422 83.79 A 58.024 58.024 0 0 1 159.356 68.662 A 53.423 53.423 0 0 1 160.352 65.381 A 50.595 50.595 0 0 1 163.527 57.928 A 37.362 37.362 0 0 1 168.164 51.05 Q 171.709 46.92 175.666 45.789 A 11.022 11.022 0 0 1 178.711 45.362 Q 181.565 45.362 183.269 47.597 A 7.215 7.215 0 0 1 183.472 47.876 A 9.803 9.803 0 0 1 185.134 52.458 A 12.482 12.482 0 0 1 185.205 53.809 A 20.316 20.316 0 0 1 184.53 59.162 A 16.037 16.037 0 0 1 181.86 64.649 Q 178.516 69.092 173.633 71.924 A 75.42 75.42 0 0 1 168.031 74.851 A 100.537 100.537 0 0 1 162.402 77.295 Z M 495.947 77.295 L 495.752 84.473 Q 495.752 90.028 497.973 91.909 A 4.268 4.268 0 0 0 500.83 92.872 Q 503.527 92.872 506.485 91.328 A 17.938 17.938 0 0 0 506.567 91.285 Q 509.57 89.698 510.889 88.99 Q 512.207 88.282 512.939 88.282 A 2.322 2.322 0 0 1 513.626 88.374 Q 514.648 88.691 514.648 90.088 A 2.325 2.325 0 0 1 514.197 91.381 Q 513.239 92.805 510.245 94.441 A 32.442 32.442 0 0 1 509.521 94.825 A 34.254 34.254 0 0 1 506.628 96.158 Q 503.665 97.347 501.406 97.451 A 9.287 9.287 0 0 1 500.977 97.461 A 16.769 16.769 0 0 1 499.189 97.373 Q 497.266 97.166 496.076 96.478 A 4.634 4.634 0 0 1 495.85 96.338 A 8.088 8.088 0 0 1 493.567 94.047 A 9.919 9.919 0 0 1 493.066 93.213 A 17.019 17.019 0 0 1 491.376 88.347 Q 490.98 86.291 490.967 83.941 A 28.818 28.818 0 0 1 490.967 83.79 A 58.024 58.024 0 0 1 492.901 68.662 A 53.423 53.423 0 0 1 493.896 65.381 A 50.595 50.595 0 0 1 497.072 57.928 A 37.362 37.362 0 0 1 501.709 51.05 Q 505.254 46.92 509.211 45.789 A 11.022 11.022 0 0 1 512.256 45.362 Q 515.11 45.362 516.814 47.597 A 7.215 7.215 0 0 1 517.017 47.876 A 9.803 9.803 0 0 1 518.678 52.458 A 12.482 12.482 0 0 1 518.75 53.809 A 20.316 20.316 0 0 1 518.075 59.162 A 16.037 16.037 0 0 1 515.405 64.649 Q 512.061 69.092 507.178 71.924 A 75.42 75.42 0 0 1 501.576 74.851 A 100.537 100.537 0 0 1 495.947 77.295 Z M 80.494 50.293 A 7.759 7.759 0 0 0 73.096 45.997 A 13.909 13.909 0 0 0 65.281 48.436 A 20.755 20.755 0 0 0 61.548 51.661 A 36.245 36.245 0 0 0 56.848 58.045 A 46.437 46.437 0 0 0 53.247 65.87 Q 50.195 74.415 50.195 83.497 A 19.501 19.501 0 0 0 52.588 92.969 A 7.88 7.88 0 0 0 57.355 96.935 A 10.83 10.83 0 0 0 60.498 97.364 A 10.186 10.186 0 0 0 63.48 96.917 A 12.111 12.111 0 0 0 66.553 95.459 Q 70.213 93.082 73.191 88.781 A 40.266 40.266 0 0 0 76.318 83.35 A 79.435 79.435 0 0 0 77.024 81.842 Q 79.415 76.586 80.727 71.619 A 45.582 45.582 0 0 0 82.324 59.961 Q 82.324 53.743 80.494 50.293 Z M 276.709 52.1 L 276.709 51.124 Q 276.709 50.573 276.233 48.754 A 64.961 64.961 0 0 0 275.977 47.803 A 3.373 3.373 0 0 1 276.731 45.676 A 4.257 4.257 0 0 1 276.807 45.582 A 2.957 2.957 0 0 1 277.526 44.943 A 2.439 2.439 0 0 1 278.833 44.581 A 1.805 1.805 0 0 1 280.104 45.111 Q 280.492 45.476 280.811 46.094 A 7.099 7.099 0 0 1 281.591 49.274 A 8.278 8.278 0 0 1 281.592 49.415 A 8.766 8.766 0 0 1 281.456 50.566 Q 280.823 54.497 277.23 70.014 A 1950.572 1950.572 0 0 1 277.002 70.997 Q 272.412 90.772 272.412 91.822 Q 272.412 92.714 273.118 92.848 A 1.456 1.456 0 0 0 273.389 92.872 Q 274.023 92.872 275.195 91.626 A 7.591 7.591 0 0 1 275.726 91.111 Q 276.283 90.624 276.752 90.462 A 1.362 1.362 0 0 1 277.197 90.381 Q 278.809 90.381 278.809 92.408 A 2.829 2.829 0 0 1 278.132 94.209 Q 277.425 95.091 275.978 95.847 A 12.192 12.192 0 0 1 275.781 95.948 A 29.653 29.653 0 0 1 274.453 96.574 Q 272.433 97.461 271.387 97.461 A 2.847 2.847 0 0 1 268.671 95.826 Q 267.969 94.471 267.969 91.993 A 6.491 6.491 0 0 1 268.071 90.881 Q 268.157 90.383 268.318 89.843 A 11.473 11.473 0 0 1 268.433 89.478 Q 268.852 88.221 269.311 86.087 A 69.791 69.791 0 0 0 269.409 85.621 A 243.846 243.846 0 0 1 269.693 84.276 Q 270.014 82.775 270.452 80.8 A 833.819 833.819 0 0 1 270.874 78.907 A 2519.137 2519.137 0 0 0 272.578 71.248 A 2781.008 2781.008 0 0 0 272.827 70.118 Q 273.828 65.577 275.269 59.107 A 629.497 629.497 0 0 0 275.606 57.582 Q 276.647 52.853 276.705 52.167 A 0.819 0.819 0 0 0 276.709 52.1 Z M 421.973 85.401 A 15.29 15.29 0 0 0 422.197 88.151 Q 423.101 93.067 427.637 93.067 Q 431.864 93.067 435.527 88.862 A 23.53 23.53 0 0 0 437.305 86.524 A 39.269 39.269 0 0 0 441.489 78.11 Q 442.981 74.015 443.93 69.126 A 79.954 79.954 0 0 0 444.727 64.161 A 55.665 55.665 0 0 0 445.23 58.539 A 48.812 48.812 0 0 0 445.264 56.739 A 19.65 19.65 0 0 0 445.157 54.589 Q 444.92 52.452 444.16 51.378 A 2.41 2.41 0 0 0 442.09 50.293 A 5.576 5.576 0 0 0 439.814 50.829 Q 437.489 51.87 434.717 54.932 A 48.098 48.098 0 0 0 426.67 67.329 A 56.221 56.221 0 0 0 425.415 70.313 A 66.196 66.196 0 0 0 423.491 75.981 Q 421.973 81.283 421.973 85.401 Z M 338.403 84.108 A 33.462 33.462 0 0 0 338.379 85.376 A 20.367 20.367 0 0 0 338.507 87.768 Q 338.792 90.169 339.717 91.347 A 2.864 2.864 0 0 0 342.09 92.481 A 4.458 4.458 0 0 0 344.232 91.866 Q 346.671 90.526 349.574 86.271 A 42.487 42.487 0 0 0 349.634 86.182 A 47.335 47.335 0 0 0 353.9 78.316 A 62.588 62.588 0 0 0 356.47 71.119 A 1422.71 1422.71 0 0 0 357.674 66.98 Q 358.835 62.965 359.665 59.988 A 372.103 372.103 0 0 0 360.352 57.496 Q 361.433 53.509 361.956 51.61 A 342.12 342.12 0 0 1 362.158 50.879 A 5.555 5.555 0 0 0 359.136 49.607 A 7.332 7.332 0 0 0 358.301 49.561 A 7.859 7.859 0 0 0 354.588 50.557 Q 352.105 51.877 349.564 54.947 A 30.741 30.741 0 0 0 349.219 55.372 Q 344.58 61.182 341.479 69.727 Q 338.653 77.516 338.403 84.108 Z M 60.01 62.159 A 52.502 52.502 0 0 0 56.096 72.422 A 41.003 41.003 0 0 0 54.736 82.764 A 19.71 19.71 0 0 0 54.977 85.968 Q 55.701 90.345 58.594 92.139 A 4.837 4.837 0 0 0 60.815 92.854 A 5.946 5.946 0 0 0 61.279 92.872 A 4.586 4.586 0 0 0 63.455 92.263 Q 65.696 91.056 68.262 87.452 A 42.347 42.347 0 0 0 71.814 81.403 Q 73.235 78.482 74.422 75.079 A 70.06 70.06 0 0 0 74.756 74.097 A 64.664 64.664 0 0 0 76.257 68.908 Q 76.896 66.264 77.175 63.926 A 29.134 29.134 0 0 0 77.393 60.474 A 79.187 79.187 0 0 0 77.369 58.488 Q 77.269 54.502 76.733 53.272 A 7.979 7.979 0 0 0 76.314 52.436 Q 75.814 51.58 75.22 51.172 A 2.579 2.579 0 0 0 74.576 50.863 Q 73.916 50.643 72.921 50.598 A 11.821 11.821 0 0 0 72.388 50.586 Q 70.822 50.586 69.026 51.566 A 12.704 12.704 0 0 0 68.066 52.149 A 17.521 17.521 0 0 0 64.45 55.323 Q 62.991 56.977 61.661 59.154 A 39.242 39.242 0 0 0 60.01 62.159 Z M 349.561 110.499 L 351.074 102.588 A 210.37 210.37 0 0 1 343.935 108.241 A 193.866 193.866 0 0 1 343.823 108.326 A 81.846 81.846 0 0 0 339.828 111.535 A 66.131 66.131 0 0 0 337.402 113.721 A 30.71 30.71 0 0 0 334.452 116.956 Q 331.273 121.034 331.157 124.789 A 9.197 9.197 0 0 0 331.152 125.074 A 18.856 18.856 0 0 0 331.273 127.295 Q 331.683 130.741 333.496 131.836 A 3.45 3.45 0 0 0 334.325 132.197 Q 335.149 132.443 336.347 132.468 A 13.194 13.194 0 0 0 336.621 132.471 A 7.417 7.417 0 0 0 341.789 130.366 Q 342.798 129.435 343.689 128.091 A 16.345 16.345 0 0 0 343.872 127.808 A 20.966 20.966 0 0 0 345.335 124.978 Q 347.462 120.094 349.47 110.917 A 173.382 173.382 0 0 0 349.561 110.499 Z M 603.662 110.499 L 604.932 104.004 A 182.654 182.654 0 0 1 601.031 106.922 A 145.607 145.607 0 0 1 597.339 109.522 A 64.537 64.537 0 0 0 593.781 112.116 A 49.315 49.315 0 0 0 591.064 114.405 A 20.537 20.537 0 0 0 587.697 118.264 A 14.09 14.09 0 0 0 585.254 126.172 A 10.011 10.011 0 0 0 585.593 128.854 A 7.159 7.159 0 0 0 587.939 132.52 A 3.906 3.906 0 0 0 589.346 133.206 Q 589.905 133.357 590.565 133.39 A 7.561 7.561 0 0 0 590.942 133.399 A 5.347 5.347 0 0 0 594.109 132.356 A 6.771 6.771 0 0 0 594.409 132.129 A 12.06 12.06 0 0 0 596.269 130.256 A 15.348 15.348 0 0 0 597.266 128.858 A 24.804 24.804 0 0 0 598.748 126.146 A 30.707 30.707 0 0 0 599.536 124.317 A 69.872 69.872 0 0 0 601.318 119.239 A 87.122 87.122 0 0 0 602.289 115.851 A 74.106 74.106 0 0 0 602.661 114.38 A 169.423 169.423 0 0 1 602.934 113.268 Q 603.331 111.677 603.66 110.508 A 47.439 47.439 0 0 1 603.662 110.499 Z M 180.615 54.004 A 6.816 6.816 0 0 0 180.475 52.554 Q 180.017 50.46 178.064 50.151 A 4.615 4.615 0 0 0 177.344 50.098 Q 174.414 50.098 170.459 55.372 A 33.911 33.911 0 0 0 167.273 60.604 Q 165.377 64.409 163.916 69.288 A 36.174 36.174 0 0 0 163.632 70.273 Q 163.361 71.273 163.247 71.971 A 7.065 7.065 0 0 0 163.184 72.461 Q 165.137 71.387 167.188 70.411 A 76.998 76.998 0 0 0 171.191 68.36 A 25.769 25.769 0 0 0 174.734 66.017 Q 176.699 64.457 178.062 62.642 A 16.209 16.209 0 0 0 178.149 62.525 A 12.218 12.218 0 0 0 180.208 57.907 Q 180.59 56.22 180.614 54.266 A 21.439 21.439 0 0 0 180.615 54.004 Z M 514.16 54.004 A 6.816 6.816 0 0 0 514.02 52.554 Q 513.562 50.46 511.609 50.151 A 4.615 4.615 0 0 0 510.889 50.098 Q 507.959 50.098 504.004 55.372 A 33.911 33.911 0 0 0 500.818 60.604 Q 498.922 64.409 497.461 69.288 A 36.174 36.174 0 0 0 497.177 70.273 Q 496.906 71.273 496.792 71.971 A 7.065 7.065 0 0 0 496.729 72.461 Q 498.682 71.387 500.732 70.411 A 76.998 76.998 0 0 0 504.736 68.36 A 25.769 25.769 0 0 0 508.279 66.017 Q 510.244 64.457 511.607 62.642 A 16.209 16.209 0 0 0 511.694 62.525 A 12.218 12.218 0 0 0 513.753 57.907 Q 514.135 56.22 514.159 54.266 A 21.439 21.439 0 0 0 514.16 54.004 Z M 3.32 97.706 L 2.93 97.706 Q 0.178 97.706 0.011 94.648 A 7.486 7.486 0 0 1 0 94.239 Q 0 92.53 1.44 91.163 A 5.527 5.527 0 0 1 2.597 90.306 A 4.06 4.06 0 0 1 4.565 89.795 A 5.005 5.005 0 0 1 6.949 90.414 A 6.69 6.69 0 0 1 7.813 90.967 A 7.783 7.783 0 0 1 8.667 91.936 Q 9.521 93.099 9.521 94.239 A 3.556 3.556 0 0 1 8.415 96.865 A 4.53 4.53 0 0 1 8.301 96.973 A 4.695 4.695 0 0 1 7.317 97.679 A 3.496 3.496 0 0 1 5.664 98.096 A 8.472 8.472 0 0 1 4.69 98.043 Q 3.907 97.953 3.32 97.706 Z M 284.734 29.44 A 4.147 4.147 0 0 0 283.594 29.297 A 4.396 4.396 0 0 0 281.592 29.779 A 5.778 5.778 0 0 0 280.322 30.665 A 6.81 6.81 0 0 0 280.056 30.918 Q 279.603 31.374 279.315 31.848 A 3.27 3.27 0 0 0 278.809 33.57 A 4.479 4.479 0 0 0 278.83 34.014 A 3.296 3.296 0 0 0 279.785 36.084 A 4.857 4.857 0 0 0 280.121 36.391 Q 280.93 37.061 281.738 37.061 A 11.926 11.926 0 0 0 282.479 37.039 A 9.551 9.551 0 0 0 283.545 36.915 Q 285.834 36.495 286.334 33.84 A 9.004 9.004 0 0 0 286.475 32.178 Q 286.475 29.939 284.734 29.44 Z" vector-effect="non-scaling-stroke"/></g></svg>